<svg xmlns="http://www.w3.org/2000/svg" viewBox="0 0 145.91 91.46"><defs><style>.cls-1{fill:#f1f2f2;}.cls-2{fill:#fff;stroke:#e6e7e8;stroke-width:0.62px;}.cls-2,.cls-6{stroke-miterlimit:10;}.cls-3{fill:#d6eaf1;}.cls-4{fill:#b5dbe5;}.cls-5{fill:#95cdd9;}.cls-6{fill:none;stroke:#b4dce5;stroke-width:0.67px;stroke-dasharray:3.1;}</style></defs><g id="Layer_2" data-name="Layer 2"><g id="Layer_1-2" data-name="Layer 1"><path class="cls-1" d="M123.9,64.4a4.26,4.26,0,0,1-.5,0l.15-2.24c3.83.26,6.94-4,9.25-12.49.48-1.75.91-3.66,1.39-6.19a34.26,34.26,0,0,1,4.23-11.75c2.23-3.66,4.53-7.45,5.21-11.72.3-1.86-.82-9.77-2.91-10.43-.32-.1-2.11-.25-5.56,6.86-.32,1-3.1,8.6-11.4,10.72L123.2,25c7.43-1.9,9.81-9.24,9.84-9.31l.06-.15c3.07-6.34,5.7-8.91,8.3-8.09,4,1.27,4.74,11.14,4.45,12.93-.75,4.7-3.17,8.68-5.51,12.53a32.06,32.06,0,0,0-3.94,11c-.5,2.58-.94,4.54-1.43,6.35C132.43,59.64,128.7,64.4,123.9,64.4Z"/><path class="cls-1" d="M22,63.54c-6.12,0-8.85-7.5-10-10.75-1.09-3-2.62-6.27-4.24-9.72C3.1,33.26-2.12,22.14.89,12.25c1-3.43,2.47-5.17,4.37-5.32,2.44-.19,5,2.41,7.54,7.71l0,.08,0,.08c0,.07,2.41,7.41,9.84,9.31l-.56,2.17c-8.3-2.12-11.08-9.76-11.4-10.73C8.39,10.72,6.42,9.1,5.44,9.17S3.74,10.6,3,12.91C.29,22,5.31,32.67,9.74,42.11c1.65,3.5,3.2,6.8,4.33,9.91,1.72,4.74,4.05,9.54,8.27,9.26l.15,2.24Z"/><path class="cls-2" d="M118.74,29c-10-3.1-24.33-14.2-24.33-14.2C84.34,7.12,72.59,7.64,65.25,9.09c-5.48,1.08-9.83,4-14.48,6.92-11,6.92-18.7,9.92-23.58,11.21l.12.92a14.58,14.58,0,0,1,1.56,4.66c3.36-.41,6.71-.88,10.06-1.45,8.94-1.52,17.38-5,26.42-6.13,8.62-1.06,17.74-1,26,2.12,0,0,19.18,5.58,26.78,5.94a39.72,39.72,0,0,1,.65-3.92Z"/><path class="cls-2" d="M118.09,33.27h0c-7.6-.36-26.78-5.94-26.78-5.94-8.22-3.1-17.34-3.18-26-2.12-9,1.11-17.48,4.61-26.42,6.13-3.35.57-6.7,1-10.06,1.45a25.07,25.07,0,0,1-.77,11.41,117.28,117.28,0,0,1,23.25.54c8.13,1.13,15.84,5.47,24.05,5.7,5.95.17,19.41-3.45,25.28-4.24a163.15,163.15,0,0,1,16.74-1.7A87.55,87.55,0,0,1,118.09,33.27Z"/><path class="cls-2" d="M100.68,46.21c-5.87.79-19.33,4.41-25.28,4.24-8.21-.23-15.92-4.57-24.05-5.7a117.28,117.28,0,0,0-23.25-.54c-.06.22-.12.44-.19.66A63.16,63.16,0,0,0,26,51.72c8.44-.26,17,8.09,25.37,9.27,8.13,1.14,15.84,5.47,24.05,5.7,5.95.17,19.41-3.45,25.28-4.24,8.27-1.12,8.76-9,17-10.51-.19-2.69-.27-5.17-.27-7.43A163.15,163.15,0,0,0,100.68,46.21Z"/><path class="cls-2" d="M100.68,62.45c-5.87.79-19.33,4.41-25.28,4.24-8.21-.23-15.92-4.56-24.05-5.7C43,59.81,34.42,51.46,26,51.72a44.35,44.35,0,0,0-1.07,7.59c8,3.89,14.76,12.36,21.6,16.78,8.64,5.59,19.26,7.76,29.44,7.76,12.35,0,24-5.06,33.77-12.38,3.16-2.36,6.19-4.93,9.52-7a116.93,116.93,0,0,1-1.55-12.55C109.44,53.41,109,61.33,100.68,62.45Z"/><path class="cls-2" d="M126.71,68.55c-5-23.66-1.28-39.19-1.28-39.19V21.45l-.36.13-.12,0-.25.06-.15,0-.24.05-.17,0-.24,0-.18,0h-1.3l-.29,0-.16,0-.32,0-.14,0-.35-.06h-.08a21.68,21.68,0,0,1-2.34-.59C108.78,18,94.41,6.86,94.41,6.86,84.34-.79,72.59-.26,65.25,1.18c-5.48,1.08-9.83,4-14.48,6.92C39.58,15.15,31.52,18.25,26.42,19.61l-.78.2h-.06l-.7.16-.08,0-.63.14-.09,0-.58.11h-.08l-.53.09h-.07l-.49.08h0l-.46.06h0l-.81.08h0l-.31,0h-1l.92,7.5s3.85,6.19.6,16.73c0,0-4.41,12.2-2.57,19.8a20.51,20.51,0,0,1,6.89,2.25c7.72,4,14.31,12.16,21,16.47C55.15,89,65.77,91.15,76,91.15c12.35,0,24-5.06,33.77-12.38,3.57-2.67,7-5.61,10.84-7.75h0A24.67,24.67,0,0,1,126.71,68.55Zm-17,2.92C100,78.79,88.3,83.85,76,83.85c-10.18,0-20.8-2.17-29.44-7.76C39.67,71.67,32.9,63.2,24.91,59.31a56.52,56.52,0,0,1,3-14.44c3.25-10.54-.6-16.73-.6-16.73l-.1-.92c4.88-1.3,12.59-4.3,23.56-11.21,4.65-2.93,9-5.84,14.48-6.92,7.34-1.45,19.09-2,29.16,5.67,0,0,14.37,11.1,24.33,14.2v.4s-3.27,13.77.5,35.13C115.91,66.54,112.87,69.11,109.72,71.47Z"/><path class="cls-3" d="M77.32,24.66c-.15-1.11-13.73-2.92-13.9-4-.22-1.36,13-2,12.69-3.33-.14-.77,16-1.93,15.26-2.28C83.48,11.09,75.24,13.15,75,12.22c-.32-1.35-.66-2.69-1-4a44.86,44.86,0,0,0-8.75.87c-5.48,1.08-9.83,4-14.48,6.92-11,6.92-18.7,9.92-23.58,11.21l.12.92a14.58,14.58,0,0,1,1.56,4.66,25.07,25.07,0,0,1-.77,11.41c-.06.22-.12.44-.19.66A63.16,63.16,0,0,0,26,51.72a44.35,44.35,0,0,0-1.07,7.59c8,3.89,14.76,12.36,21.6,16.78,7.84,5.08,17.33,7.33,26.63,7.7.24-.81-19.13-4.22-18.9-5.05s20.08.87,20.3,0c.17-.66-6.7-1.33-6.54-2,.12-.49,15.71-2.07,15.82-2.57.62-2.78-7.29-4.56-6.84-7.49.24-1.54-6-4.44-5.78-6,.34-2.91,7-4.53,7.2-7.55,0-.93,7.79-2.22,7.82-3.16,0-.65-7.64-.95-7.62-1.6,0-1.27.05-2.55.05-3.84s-10.91-3.14-11-4.43C67.56,34.59,78,29.8,77.32,24.66Z"/><path class="cls-4" d="M55.44,31.75a96.82,96.82,0,0,0,25.16.84c8.17-.83,15.69-1.71,23.92-.59,4,.55,9.52.89,13.37,3,.06-.62.13-1.19.2-1.71h0c-7.6-.36-26.78-5.94-26.78-5.94-8.22-3.1-17.34-3.18-26-2.12-9,1.11-17.48,4.61-26.42,6.13-3.35.57-6.7,1-10.06,1.45.06.32.11.66.16,1C37.59,31.68,46.79,30.37,55.44,31.75Z"/><path class="cls-4" d="M100.27,49.74c2.62-.38,5.08-.61,7.5-1.78.72-.35,1.24-1.11,1.94-1.53a19.18,19.18,0,0,1,5.39-1.77c-5.87.39-7.12.56-14.42,1.55-4.17.56-12.14,2.54-18.56,3.59l8.25.14C93.66,49.75,97,49.74,100.27,49.74Z"/><path class="cls-4" d="M74.19,74.1c6,.21,20.62-8.64,26.49-9.65s7.74-6.09,11.18-9.74c-3.44,2.9-5.44,7-11.18,7.74S81.35,66.86,75.4,66.69c-8.21-.23-15.92-4.56-24.05-5.7-4.92-.69-9.88-3.83-14.84-6.27,5,3.07,9.92,7,14.84,7.9C59.48,64.05,66,73.8,74.19,74.1Z"/><path class="cls-4" d="M45.86,45.78c1.68.51,3.38.92,5.09,1.28s3.43.47,5.15.66c3.76.43,7.26,2,11,2.55a50.22,50.22,0,0,0,11.16.52,54.12,54.12,0,0,0,6.32-.94h-.18l-2.27,0h0a38.6,38.6,0,0,1-6.73.65c-8-.23-15.43-4.3-23.28-5.59l-.77-.11L50,44.57l-.44,0-.9-.1-.53-.06-.82-.07-.56,0-.81-.07-.56,0-.84-.05-.51,0L42.76,44l-.7,0-.63,0-.77,0h-3c-2,0-3.94,0-5.91.14C35.68,44.37,45.35,45.25,45.86,45.78Z"/><path class="cls-5" d="M80.6,30c-8.37.85-16.77-1.29-25.16-.84a65.45,65.45,0,0,0-12.73,2.24,52.53,52.53,0,0,1,12.73.33,96.82,96.82,0,0,0,25.16.84c6.54-.66,12.67-1.36,19.09-1C93.3,30.5,87,29.38,80.6,30Z"/><path class="cls-5" d="M64.63,48.34c-4.15-1.27-8.28-2.78-12.51-3.48l-.77-.11L50,44.57l-.44,0-.9-.1-.53-.06-.82-.07-.56,0-.43,0L51.78,46S59,48.23,64.63,48.34Z"/><path class="cls-5" d="M102.75,47.55a11.61,11.61,0,0,0,5.76-2.35c-2,.21-4.12.5-7.83,1-2.59.35-6.66,1.25-10.9,2.13h7.16A47.69,47.69,0,0,0,102.75,47.55Z"/><path class="cls-5" d="M100.68,62.45c-5.87.79-19.33,4.41-25.28,4.24-8.21-.23-15.92-4.56-24.05-5.7a20.29,20.29,0,0,1-4.59-1.26,23.08,23.08,0,0,0,6,1.84c8.14,1.14,14.45,7.46,22.66,7.7,5.95.17,19.41-5.92,25.28-6.72,5.49-.74,7.55-4.48,10.74-7.34.14-.17.29-.33.44-.5C108.42,57.61,106.42,61.67,100.68,62.45Z"/><path class="cls-6" d="M22.86,22.69C27.3,22,36.49,19.42,50.77,10.42c4.65-2.93,9-5.85,14.48-6.92,7.34-1.45,19.09-2,29.16,5.67,0,0,19.84,15.71,28.89,15"/><path class="cls-6" d="M25.74,25.18c5.06-1.26,13.33-4.31,25-11.67,4.65-2.93,9-5.85,14.48-6.93,7.34-1.44,19.09-2,29.16,5.68,0,0,17.16,13.24,27,14.83"/><path class="cls-6" d="M124.29,65.41c-4-21.88-.66-36-.66-36V25.11"/><path class="cls-6" d="M121.85,65.41c-3.74-21.29-.48-35-.48-35V27.68"/><path class="cls-6" d="M22,22.88l.64,5.26s3.85,6.19.61,16.73c0,0-3.83,10.59-2.87,18.19"/><path class="cls-6" d="M25,25.89l.28,2.25s3.85,6.19.6,16.73a81,81,0,0,0-3,15.9"/><path class="cls-6" d="M124.54,66.7l-4,2c-3.85,2.14-7.27,5.08-10.84,7.76C100,83.77,88.3,88.83,76,88.83c-10.18,0-20.8-2.16-29.44-7.75-6.66-4.31-13.25-12.45-21-16.47l-4.73-2"/><path class="cls-6" d="M120.56,66.13c-3.85,2.14-7.27,5.08-10.84,7.75C100,81.2,88.3,86.26,76,86.26c-10.18,0-20.8-2.17-29.44-7.76-6.66-4.3-13.25-12.44-21-16.46l-2.72-1.3"/></g></g></svg>